<svg xmlns="http://www.w3.org/2000/svg" width="87.999" height="88" viewBox="0 0 87.999 88"><path fill="#fff" d="M44 88a43.713 43.713 0 0 1-17.127-3.458 44.04 44.04 0 0 1-7.04-3.762l9.193-13.129A27.875 27.875 0 0 0 44 72a27.975 27.975 0 0 0 13.57-3.513l8.977 13.309a44.133 44.133 0 0 1-5.421 2.746A43.711 43.711 0 0 1 44 88Zm24.241-7.269-8.957-13.279A27.949 27.949 0 0 0 72 44a28.013 28.013 0 0 0-.863-6.912l15.17-5.224A44.007 44.007 0 0 1 88 44a43.727 43.727 0 0 1-3.458 17.127 43.862 43.862 0 0 1-9.43 13.986 44.271 44.271 0 0 1-6.87 5.617Zm-50.054-1.089a44.42 44.42 0 0 1-5.3-4.528 43.862 43.862 0 0 1-9.43-13.986A43.727 43.727 0 0 1 0 44a44.06 44.06 0 0 1 1.552-11.636l15.187 5.229A28.051 28.051 0 0 0 16 44a28.141 28.141 0 0 0 11.377 22.519l-9.189 13.122Zm-.92-43.981L2.126 30.448a44.124 44.124 0 0 1 1.332-3.573 43.861 43.861 0 0 1 9.43-13.986A43.858 43.858 0 0 1 26.873 3.46 43.676 43.676 0 0 1 42 .044v16.027A28.2 28.2 0 0 0 17.268 35.66Zm53.305-.493A27.982 27.982 0 0 0 44 16V0a43.723 43.723 0 0 1 17.126 3.458 43.85 43.85 0 0 1 13.986 9.429 43.86 43.86 0 0 1 9.43 13.986 43.981 43.981 0 0 1 1.169 3.082l-15.137 5.212Z" data-name="5_parts" opacity=".8"/></svg>