<svg xmlns="http://www.w3.org/2000/svg" width="87.999" height="88" viewBox="0 0 87.999 88"><path fill="#fff" d="M44 88a43.713 43.713 0 0 1-17.127-3.458 44.188 44.188 0 0 1-5.577-2.84l7.773-14.024A27.874 27.874 0 0 0 44 72a27.935 27.935 0 0 0 14.215-3.883l8.489 13.585a44.11 44.11 0 0 1-5.578 2.841A43.711 43.711 0 0 1 44 88Zm24.393-7.37L59.9 67.038A28.038 28.038 0 0 0 72 44c0-.561-.017-1.128-.05-1.687h16.018c.021.568.031 1.136.031 1.688a43.727 43.727 0 0 1-3.458 17.127 43.862 43.862 0 0 1-9.43 13.986 44.3 44.3 0 0 1-6.719 5.516Zm-48.788 0a44.3 44.3 0 0 1-6.716-5.515 43.862 43.862 0 0 1-9.43-13.986A43.727 43.727 0 0 1 0 44c0-.5.008-1.009.025-1.509h16.014c-.026.494-.04 1-.04 1.509A28.137 28.137 0 0 0 27.41 66.544l-7.806 14.083Zm-3.386-40.137H.138a43.66 43.66 0 0 1 3.32-13.619 43.861 43.861 0 0 1 9.43-13.986 44.2 44.2 0 0 1 7.833-6.235l8.251 13.732a27.944 27.944 0 0 0-12.753 20.107Zm71.63-.179h-16.09A28.023 28.023 0 0 0 56.7 19.05l8.014-13.881a43.978 43.978 0 0 1 10.4 7.718 43.86 43.86 0 0 1 9.43 13.986 43.669 43.669 0 0 1 3.306 13.439ZM30.695 19.369 22.442 5.633a44.24 44.24 0 0 1 4.432-2.174A43.723 43.723 0 0 1 44 0a43.721 43.721 0 0 1 17.126 3.458c.607.257 1.212.529 1.8.809l-8.045 13.935A27.754 27.754 0 0 0 44 16a27.987 27.987 0 0 0-13.3 3.368Z" data-name="6_parts" opacity=".8"/></svg>