<svg xmlns="http://www.w3.org/2000/svg" width="87.999" height="88" viewBox="0 0 87.999 88"><path fill="#fff" d="M44 88a43.713 43.713 0 0 1-17.127-3.458 44.622 44.622 0 0 1-1.818-.817l6.768-14.514A27.682 27.682 0 0 0 44 72a27.783 27.783 0 0 0 10.536-2.057l6.772 14.522-.146.062-.036.015A43.711 43.711 0 0 1 44 88Zm19.128-4.363L56.36 69.123a27.987 27.987 0 0 0 14.842-18.466l15.6 3.6a43.863 43.863 0 0 1-2.259 6.87 43.862 43.862 0 0 1-9.43 13.986 43.913 43.913 0 0 1-11.983 8.523Zm-39.859-.814a43.994 43.994 0 0 1-10.381-7.709 43.862 43.862 0 0 1-9.43-13.986 43.826 43.826 0 0 1-2.341-7.221l15.6-3.6a28.142 28.142 0 0 0 13.338 17.969l-6.784 14.548Zm63.952-30.521-15.613-3.6A28.165 28.165 0 0 0 72 44a28.026 28.026 0 0 0-6.376-17.768l12.269-10.295a43.864 43.864 0 0 1 6.649 10.936A43.733 43.733 0 0 1 88 44a44.4 44.4 0 0 1-.779 8.3ZM.713 51.947A44.463 44.463 0 0 1 0 44a43.732 43.732 0 0 1 3.457-17.127 43.9 43.9 0 0 1 5.858-9.955l12.28 10.305A27.736 27.736 0 0 0 16 44a28.2 28.2 0 0 0 .336 4.34L.714 51.947Zm22.139-26.279L10.584 15.374a46.311 46.311 0 0 1 2.3-2.486 43.858 43.858 0 0 1 13.985-9.429A43.682 43.682 0 0 1 42.111.04v16.024a27.8 27.8 0 0 0-19.262 9.6Zm41.447-.934A27.76 27.76 0 0 0 44.115 16V0a43.721 43.721 0 0 1 17.011 3.458 43.85 43.85 0 0 1 13.986 9.429c.5.5 1 1.021 1.47 1.541l-12.281 10.3Z" data-name="7_parts" opacity=".8"/></svg>