<svg xmlns="http://www.w3.org/2000/svg" width="87.999" height="88" viewBox="0 0 87.999 88"><path fill="#fff" d="M44 88a43.713 43.713 0 0 1-17.127-3.458 43.853 43.853 0 0 1-13.985-9.429 44.043 44.043 0 0 1-7.367-9.753l13.872-8.009A28.021 28.021 0 0 0 44 72a28.162 28.162 0 0 0 24.1-13.75l13.87 8.009a44.105 44.105 0 0 1-6.854 8.854 43.848 43.848 0 0 1-13.986 9.429A43.711 43.711 0 0 1 44 88Zm38.939-23.49-13.883-8.015A27.657 27.657 0 0 0 72 44a28.032 28.032 0 0 0-28-28V0a43.723 43.723 0 0 1 17.126 3.458 43.85 43.85 0 0 1 13.986 9.429 43.86 43.86 0 0 1 9.43 13.986A43.733 43.733 0 0 1 88 44a43.727 43.727 0 0 1-3.458 17.127 45.67 45.67 0 0 1-1.6 3.383Zm-78.35-.922c-.4-.8-.78-1.631-1.131-2.46A43.727 43.727 0 0 1 0 44a43.732 43.732 0 0 1 3.457-17.127 43.861 43.861 0 0 1 9.43-13.986 43.858 43.858 0 0 1 13.985-9.429A43.676 43.676 0 0 1 42 .044v16.027A28.084 28.084 0 0 0 16 44a27.717 27.717 0 0 0 2.5 11.558l-13.908 8.03Z" data-name="3_parts" opacity=".8"/></svg>