<svg xmlns="http://www.w3.org/2000/svg" width="87.999" height="88" viewBox="0 0 87.999 88"><path fill="#fff" d="M44 88V72a27.813 27.813 0 0 0 19.79-8.21A27.809 27.809 0 0 0 72 44a28.032 28.032 0 0 0-28-28V0a43.723 43.723 0 0 1 17.126 3.458 43.85 43.85 0 0 1 13.986 9.429 43.86 43.86 0 0 1 9.43 13.986A43.733 43.733 0 0 1 88 44a43.727 43.727 0 0 1-3.458 17.127 43.862 43.862 0 0 1-9.43 13.986 43.848 43.848 0 0 1-13.986 9.429A43.715 43.715 0 0 1 44 88Zm-2-.044a43.647 43.647 0 0 1-15.126-3.414 43.853 43.853 0 0 1-13.985-9.429 43.862 43.862 0 0 1-9.43-13.986A43.727 43.727 0 0 1 0 44a43.732 43.732 0 0 1 3.457-17.127 43.861 43.861 0 0 1 9.43-13.986 43.858 43.858 0 0 1 13.985-9.429A43.676 43.676 0 0 1 42 .044v16.027A28.084 28.084 0 0 0 16 44a28.085 28.085 0 0 0 26 27.929v16.026Z" data-name="2_parts" opacity=".8"/></svg>