<svg xmlns="http://www.w3.org/2000/svg" width="87.999" height="88" viewBox="0 0 87.999 88"><path fill="#fff" d="M44 88a43.713 43.713 0 0 1-17.127-3.458c-.3-.127-.6-.257-.885-.386l6.258-14.745A27.7 27.7 0 0 0 44 72a27.815 27.815 0 0 0 9.958-1.829l6.258 14.745A43.743 43.743 0 0 1 44 88Zm18.058-3.865-6.259-14.744a28.284 28.284 0 0 0 14.519-15.827l14.85 6c-.2.531-.412 1.056-.626 1.563a43.862 43.862 0 0 1-9.43 13.986 43.867 43.867 0 0 1-13.053 9.022Zm-37.879-.84a43.938 43.938 0 0 1-11.291-8.182 43.862 43.862 0 0 1-9.43-13.986 44.48 44.48 0 0 1-.893-2.286l14.863-6a28.017 28.017 0 0 0 13.031 15.667L24.18 83.3Zm61.655-25.619-14.9-6.019A27.955 27.955 0 0 0 72 44a27.645 27.645 0 0 0-3.046-12.693l14.763-6.267c.292.611.569 1.227.825 1.833A43.733 43.733 0 0 1 88 44a43.894 43.894 0 0 1-2.165 13.675Zm-83.9-.737A43.952 43.952 0 0 1 0 44a43.732 43.732 0 0 1 3.457-17.127c.174-.411.357-.826.544-1.233l14.75 6.261A27.681 27.681 0 0 0 16 44a28.009 28.009 0 0 0 .862 6.907L1.933 56.939Zm17.754-26.815L4.881 23.839a43.965 43.965 0 0 1 8.009-10.952 43.872 43.872 0 0 1 13.318-9.141l6.258 14.742a28.355 28.355 0 0 0-12.777 11.635Zm48.29-.575A28.246 28.246 0 0 0 53.96 17.83l6.259-14.744c.321.127.626.253.91.373a43.85 43.85 0 0 1 13.986 9.429 44 44 0 0 1 7.7 10.365l-14.836 6.3ZM34.316 17.727l-6.26-14.748A43.771 43.771 0 0 1 44 0a43.854 43.854 0 0 1 14.339 2.389L52.06 17.183A27.935 27.935 0 0 0 44 16a27.831 27.831 0 0 0-9.685 1.727Z" data-name="8_parts" opacity=".8"/></svg>