<svg xmlns="http://www.w3.org/2000/svg" width="87.999" height="88" viewBox="0 0 87.999 88"><path fill="#fff" d="M44 88a43.722 43.722 0 0 1-17.126-3.458 43.849 43.849 0 0 1-13.986-9.429 43.853 43.853 0 0 1-9.429-13.986A43.725 43.725 0 0 1 0 44a43.728 43.728 0 0 1 3.458-17.127 43.854 43.854 0 0 1 9.429-13.986 43.855 43.855 0 0 1 13.986-9.429A43.722 43.722 0 0 1 44 0a43.724 43.724 0 0 1 17.127 3.458 43.851 43.851 0 0 1 13.986 9.429 43.854 43.854 0 0 1 9.43 13.986A43.728 43.728 0 0 1 88 44a43.725 43.725 0 0 1-3.458 17.127 43.854 43.854 0 0 1-9.43 13.986 43.852 43.852 0 0 1-13.986 9.429A43.724 43.724 0 0 1 44 88Zm0-72a28.032 28.032 0 0 0-28 28 28.031 28.031 0 0 0 28 28 28.032 28.032 0 0 0 28-28 28.032 28.032 0 0 0-28-28Z" data-name="1_parts" opacity=".8"/></svg>