<svg xmlns="http://www.w3.org/2000/svg" width="64" height="44.131" viewBox="0 0 64 44.131"><g fill="#fff"><path d="M38.6 0q.774.542 1.531 1.113A57.467 57.467 0 0 1 48.3 8.629a61.084 61.084 0 0 1 6.738 9.111 64.178 64.178 0 0 1 5.089 10.457A66.582 66.582 0 0 1 64 44.129H24.431c-1.034-11.211-4.141-21.549-9-29.723C11.117 7.163 5.8 2.237 0 0Z" data-name="Caminho 788" opacity=".8"/><path d="M16.513 44.131c-1.245-10.227-4.24-19.625-8.729-27.176a40.312 40.312 0 0 0-7.7-9.571V.037a24.142 24.142 0 0 1 5.155 2.825 37.343 37.343 0 0 1 10.187 11.544 63.967 63.967 0 0 1 6.869 17.121 83.017 83.017 0 0 1 2.137 12.6Z" data-name="Caminho 789" opacity=".12"/></g></svg>